<svg width="2006" height="310" viewBox="0 0 2006 310" version="1.1" xmlns="http://www.w3.org/2000/svg" xmlns:xlink="http://www.w3.org/1999/xlink">
<g id="Canvas" fill="none">
<g id="Group">
<rect id="Rectangle2" width="2006" height="310" fill="#ffffff"/>
<path id="Vector 35" d="M 49.5 242.846L 0 146.346L 306.564 0L 354.5 232.846L 49.5 242.846Z" transform="translate(1272 88.1543)" fill="#011639"/>
<path id="Vector 34" d="M 280.038 132.447L 0 0L 210.697 0.806985L 280.038 132.447Z" transform="translate(1338.96 203.553)" fill="#94D8F2"/>
<path id="Vector 32" d="M 63.3398 130.14L 346.851 74.2426L 0 0L 63.3398 130.14Z" transform="translate(1549.66 204.36)" fill="#011639"/>
<path id="Vector 30" d="M 223.5 79.397L 284.01 0L 0 54.897L 223.5 79.397Z" transform="translate(1612.5 278.603)" fill="#94D8F2"/>
<path id="Vector 24" d="M 346.851 83.9265L 238.84 0L 0 9.68382L 346.851 83.9265Z" transform="translate(1549.66 194.677)" fill="#1F4B8C"/>
<path id="Vector 23" d="M 33.4681 0L 0 140.415L 238.84 130.732L 33.4681 0Z" transform="translate(1549.66 63.9448)" fill="#1C3E6B"/>
<path id="Vector 22" d="M 193.963 41.9632L 82.9096 85.5404L 0 78.2776L 116.378 0L 193.963 41.9632Z" transform="translate(800.431 125.276)" fill="#011639"/>
<path id="Vector 20" d="M 13.6915 141.722L 0 0L 150.5 91.5L 13.6915 141.722Z" transform="translate(1272 234.5)" fill="#1E4B8C"/>
<path id="Vector 18" d="M 388.66 23.6838L 407.66 122.684L 0 0L 388.66 23.6838Z" transform="translate(883.34 210.816)" fill="#94D8F2"/>
<path id="Vector 16" d="M 130.83 54.875L 19.7766 111.364L 0 0L 130.83 54.875Z" transform="translate(752.511 155.941)" fill="#1C3E6B"/>
<path id="Vector 15" d="M 183.973 12.9118L 0 132.684L 9.78711 56.489L 120.84 0L 183.973 12.9118Z" transform="translate(762.5 210.816)" fill="#245C86"/>
<path id="Vector 14" d="M 123.984 41.9632L 22.0585 84.7335L 0 0L 123.984 41.9632Z" transform="translate(482.484 70.4006)" fill="#94D8F2"/>
<path id="Vector 12" d="M 245.686 111.364L 0 80.6985L 225.91 0L 245.686 111.364Z" transform="translate(526.601 155.941)" fill="#011639"/>
<path id="Vector 13" d="M 79.867 0L 0 124.276L 225.91 43.5772L 79.867 0Z" transform="translate(526.601 112.364)" fill="#94D8F2"/>
<path id="Vector 11" d="M 245.686 30.6654L 245.686 103.36L 103.447 39.5423L 0 0L 245.686 30.6654Z" transform="translate(526.601 236.64)" fill="#4B8EB4"/>
<path id="Vector 10" d="M 312.245 0L 104.59 4.03493L 0 72.9668L 513 72.9668L 312.245 0Z" transform="translate(314 270.533)" fill="#1C3E6B"/>
<path id="Vector 9" d="M 207.654 33.8934L 108.011 0L 0 37.9283L 207.654 33.8934Z" transform="translate(418.59 236.64)" fill="#01173A"/>
<path id="Vector 19" d="M 0 0L 312.526 85.272L 26.6223 124.276L 0 0Z" transform="translate(946.474 223.728)" fill="#204A8B"/>
<path id="Vector 8" d="M 455.622 0L 0 164.625L 375.755 124.276L 455.622 0Z" transform="translate(150.846 112.364)" fill="#1C3E6B"/>
<path id="Vector 7" d="M 375.755 0L 0 40.3493L 267.745 37.9283L 375.755 0Z" transform="translate(150.846 236.64)" fill="#245C87"/>
<path id="Vector 2" d="M 0 111.874L 0 0L 149.846 66.2L 0 111.874Z" transform="translate(1 210.789)" fill="#4B8EB4"/>
<path id="Vector 3" d="M 267.745 0L 168.126 146.054L 0 2.42096L 267.745 0Z" transform="translate(150.846 274.568)" fill="#94D8F2"/>
<path id="Vector 4" d="M 149.846 0L 0 45.1912L 0 56.489L 223.628 62.9449L 149.846 0Z" transform="translate(1 276.989)" fill="#1F498B"/>
<path id="Vector 5" d="M 0 0L 317.947 87.1544L 223.628 6.45588L 0 0Z" transform="translate(1 333.478)" fill="#01173A"/>
<path id="Vector 6" d="M 0 106.522L 0 0L 171.144 46.8051L 0 106.522Z" transform="translate(1 333.478)" fill="#245D86"/>
<path id="Vector 25" d="M 108.011 83.9265L 0 0L 214.5 9.68382L 214.5 43.5772L 108.011 83.9265Z" transform="translate(1788.5 194.677)" fill="#94D8F2"/>
<path id="Vector 27" d="M 214.5 74.2426L 0 56.489L 214.5 0L 214.5 74.2426Z" transform="translate(1788.5 138.188)" fill="#1F4B8C"/>
<path id="Vector 21" d="M 211.457 0L 0 88.7684L 388.66 112.452L 211.457 0Z" transform="translate(883.34 122.048)" fill="#1C3E6B"/>
<path id="Vector 26" d="M 42.5957 0L 42.5957 37.1213L 0 34.7004L 42.5957 0Z" transform="translate(1960.4 172.081)" fill="#01163A"/>
<path id="Vector 28" d="M 106.489 0L 0 40.3493L 106.489 129.118L 106.489 0Z" transform="translate(1896.51 238.254)" fill="#1C3E6B"/>
<path id="Vector 29" d="M 188.5 88.7684L 82.0104 0L 0 88.7684L 188.5 88.7684Z" transform="translate(1814.5 278.603)" fill="#1F4B8C"/>
<path id="Vector 17" d="M 211.973 0L 0 124.276L 238.596 124.276L 211.973 0Z" transform="translate(734.5 223.728)" fill="#011639"/>
<path id="Vector 2_2" d="M 214.5 193.676L 0 137.188L 0 0L 2002 0L 2002 209.816L 1852.15 275.989L 1499.22 149.292L 1520.52 69.4007L 1396.53 111.364L 1250.49 154.941L 1177.47 185.607L 1086.19 124.276L 1011.65 164.625L 908.202 121.048L 731 233.5L 425.957 88.7684L 419.872 62.9449L 214.5 193.676Z" transform="translate(2003 1) scale(-1 1)" fill="white"/>
<rect id="Rectangle" width="2005" height="133" transform="translate(1 313)" fill="#C4C4C4"/>
</g>
</g>
</svg>
