<svg width="1316" height="272" viewBox="0 0 1316 272" version="1.1" xmlns="http://www.w3.org/2000/svg" xmlns:xlink="http://www.w3.org/1999/xlink">
<title>Group</title>
<desc>Created using Figma</desc>
<g id="Canvas" transform="translate(-5440 -84)">
<g id="Group">
<g id="Vector 35">
<use xlink:href="#path0_fill" transform="matrix(-1 0 0 1 5921 138)" fill="#011639"/>
</g>
<g id="Vector 34">
<use xlink:href="#path1_fill" transform="matrix(-1 0 0 1 5876.5 209.5)" fill="#1C3E6B"/>
</g>
<g id="Vector 33">
<use xlink:href="#path2_fill" transform="matrix(-1 0 0 1 5912 209.5)" fill="#245D86"/>
</g>
<g id="Vector 32">
<use xlink:href="#path3_fill" transform="matrix(-1 0 0 1 5738 210)" fill="#011639"/>
</g>
<g id="Vector 31">
<use xlink:href="#path4_fill" transform="matrix(-1 0 0 1 5709 256)" fill="#245D86"/>
</g>
<g id="Vector 30">
<use xlink:href="#path5_fill" transform="matrix(-1 0 0 1 5668 256)" fill="#94D8F2"/>
</g>
<g id="Vector 24">
<use xlink:href="#path6_fill" transform="matrix(-1 0 0 1 5738 204)" fill="#1F4B8C"/>
</g>
<g id="Vector 23">
<use xlink:href="#path7_fill" transform="matrix(-1 0 0 1 5738 123)" fill="#1C3E6B"/>
</g>
<g id="Vector 22">
<use xlink:href="#path8_fill" transform="matrix(-1 0 0 1 6230.5 161)" fill="#011639"/>
</g>
<g id="Vector 20">
<use xlink:href="#path9_fill" transform="matrix(-1 0 0 1 5921 178.5)" fill="#1E4B8C"/>
</g>
<g id="Vector 18">
<use xlink:href="#path10_fill" transform="matrix(-1 0 0 1 6176 178.5)" fill="#94D8F2"/>
</g>
<g id="Vector 16">
<use xlink:href="#path11_fill" transform="matrix(-1 0 0 1 6262 180)" fill="#1C3E6B"/>
</g>
<g id="Vector 15">
<use xlink:href="#path12_fill" transform="matrix(-1 0 0 1 6249 214)" fill="#245C86"/>
</g>
<g id="Vector 14">
<use xlink:href="#path13_fill" transform="matrix(-1 0 0 1 6439.5 127)" fill="#94D8F2"/>
</g>
<g id="Vector 12">
<use xlink:href="#path14_fill" transform="matrix(-1 0 0 1 6410.5 180)" fill="#011639"/>
</g>
<g id="Vector 13">
<use xlink:href="#path15_fill" transform="matrix(-1 0 0 1 6410.5 153)" fill="#94D8F2"/>
</g>
<g id="Vector 11">
<use xlink:href="#path16_fill" transform="matrix(-1 0 0 1 6410.5 230)" fill="#4B8EB4"/>
</g>
<g id="Vector 10">
<use xlink:href="#path17_fill" transform="matrix(-1 0 0 1 6507 251)" fill="#1C3E6B"/>
</g>
<g id="Vector 9">
<use xlink:href="#path18_fill" transform="matrix(-1 0 0 1 6481.5 230)" fill="#01173A"/>
</g>
<g id="Vector 19">
<use xlink:href="#path19_fill" transform="matrix(-1 0 0 1 6134.5 222)" fill="#204A8B"/>
</g>
<g id="Vector 8">
<use xlink:href="#path20_fill" transform="matrix(-1 0 0 1 6657.5 153)" fill="#1C3E6B"/>
</g>
<g id="Vector 7">
<use xlink:href="#path21_fill" transform="matrix(-1 0 0 1 6657.5 230)" fill="#245C87"/>
</g>
<g id="Vector 2">
<use xlink:href="#path22_fill" transform="matrix(-1 0 0 1 6756 213.983)" fill="#4B8EB4"/>
</g>
<g id="Vector 3">
<use xlink:href="#path23_fill" transform="matrix(-1 0 0 1 6657.5 253.5)" fill="#94D8F2"/>
</g>
<g id="Vector 4">
<use xlink:href="#path24_fill" transform="matrix(-1 0 0 1 6756 255)" fill="#1F498B"/>
</g>
<g id="Vector 5">
<use xlink:href="#path25_fill" transform="matrix(-1 0 0 1 6756 290)" fill="#01173A"/>
</g>
<g id="Vector 6">
<use xlink:href="#path26_fill" transform="matrix(-1 0 0 1 6756 290)" fill="#245D86"/>
</g>
<g id="Vector 25">
<use xlink:href="#path27_fill" transform="matrix(-1 0 0 1 5581 204)" fill="#94D8F2"/>
</g>
<g id="Vector 27">
<use xlink:href="#path28_fill" transform="matrix(-1 0 0 1 5581 169)" fill="#1F4B8C"/>
</g>
<g id="Vector 21">
<use xlink:href="#path29_fill" transform="matrix(-1 0 0 1 6176 159)" fill="#1C3E6B"/>
</g>
<g id="Vector 26">
<use xlink:href="#path30_fill" transform="matrix(-1 0 0 1 5468 190)" fill="#01163A"/>
</g>
<g id="Vector 28">
<use xlink:href="#path31_fill" transform="matrix(-1 0 0 1 5510 231)" fill="#1C3E6B"/>
</g>
<g id="Vector 29">
<use xlink:href="#path32_fill" transform="matrix(-1 0 0 1 5580 256)" fill="#1F4B8C"/>
</g>
<g id="Vector 36">
<use xlink:href="#path33_fill" transform="matrix(-1 0 0 1 5912 261)" fill="#011639"/>
</g>
<g id="Vector 17">
<use xlink:href="#path34_fill" transform="matrix(-1 0 0 1 6242 222)" fill="#011639"/>
</g>
<g id="Vector 2">
<use xlink:href="#path35_fill" transform="translate(5440 84)" fill="#FFFFFF"/>
</g>
</g>
</g>
<defs>
<path id="path0_fill" d="M 44.5 71.5L 0 40.5L 202 0L 195.5 79L 44.5 71.5Z"/>
<path id="path1_fill" d="M 167.5 51.5L 0 0L 138.5 0.5L 167.5 51.5Z"/>
<path id="path2_fill" d="M 203 51.5L 35.5 0L 0 56.5L 203 51.5Z"/>
<path id="path3_fill" d="M 29 51L 228 46L 0 0L 29 51Z"/>
<path id="path4_fill" d="M 41 28L 199 0L 0 5L 41 28Z"/>
<path id="path5_fill" d="M 88 76L 158 0L 0 28L 88 76Z"/>
<path id="path6_fill" d="M 228 52L 157 0L 0 6L 228 52Z"/>
<path id="path7_fill" d="M 22 0L 0 87L 157 81L 22 0Z"/>
<path id="path8_fill" d="M 127.5 26L 54.5 53L 0 48.5L 76.5 0L 127.5 26Z"/>
<path id="path9_fill" d="M 9 87.5L 0 0L 44.5 31L 9 87.5Z"/>
<path id="path10_fill" d="M 255 0L 264 87.5L 0 35.5L 255 0Z"/>
<path id="path11_fill" d="M 86 34L 13 69L 0 0L 86 34Z"/>
<path id="path12_fill" d="M 114.5 8L 7 69L 0 35L 73 0L 114.5 8Z"/>
<path id="path13_fill" d="M 81.5 26L 14.5 52.5L 0 0L 81.5 26Z"/>
<path id="path14_fill" d="M 161.5 69L 0 50L 148.5 0L 161.5 69Z"/>
<path id="path15_fill" d="M 52.5 0L 0 77L 148.5 27L 52.5 0Z"/>
<path id="path16_fill" d="M 161.5 19L 168.5 53L 68 24.5L 0 0L 161.5 19Z"/>
<path id="path17_fill" d="M 162 0L 25.5 2.5L 0 38L 265 32L 162 0Z"/>
<path id="path18_fill" d="M 136.5 21L 71 0L 0 23.5L 136.5 21Z"/>
<path id="path19_fill" d="M 0 0L 222.5 44L 17.5 77L 0 0Z"/>
<path id="path20_fill" d="M 299.5 0L 0 102L 247 77L 299.5 0Z"/>
<path id="path21_fill" d="M 247 0L 0 25L 176 23.5L 247 0Z"/>
<path id="path22_fill" d="M 0 69.3159L 0 0L 98.5 41.0169L 0 69.3159Z"/>
<path id="path23_fill" d="M 176 0L 110.517 90.4936L 0 1.5L 176 0Z"/>
<path id="path24_fill" d="M 98.5 0L 0 28L 0 35L 147 39L 98.5 0Z"/>
<path id="path25_fill" d="M 0 0L 209 54L 147 4L 0 0Z"/>
<path id="path26_fill" d="M 0 66L 0 0L 112.5 29L 0 66Z"/>
<path id="path27_fill" d="M 71 52L 0 0L 141 6L 141 27L 71 52Z"/>
<path id="path28_fill" d="M 141 46L 0 35L 141 0L 141 46Z"/>
<path id="path29_fill" d="M 139 0L 0 55L 255 19.5L 139 0Z"/>
<path id="path30_fill" d="M 28 0L 28 23L 0 21.5L 28 0Z"/>
<path id="path31_fill" d="M 70 0L 0 25L 70 80L 70 0Z"/>
<path id="path32_fill" d="M 140 55L 70 0L 0 76L 140 67.5L 140 55Z"/>
<path id="path33_fill" d="M 166.5 36L 203 0L 0 5L 166.5 36Z"/>
<path id="path34_fill" d="M 107.5 0L 0 61L 125 77L 107.5 0Z"/>
<path id="path35_fill" d="M 141 120L 0 85L 0 0L 1316 0L 1316 130L 1217.5 171L 985.5 92.5L 999.5 43L 918 69L 822 96L 774 115L 714 77L 665 102L 597 75L 481 94.5L 280 55L 276 39L 141 120Z"/>
</defs>
</svg>
