<svg width="1666" height="655" viewBox="0 0 1666 655" version="1.1" xmlns="http://www.w3.org/2000/svg" xmlns:xlink="http://www.w3.org/1999/xlink">
<g id="Canvas" fill="none">
<g id="DARKSTAR-CALIBRE-GEO">
<g id="g10">
<g id="g12">
<g id="g14">
<g id="g16">
<g id="Vector">
<path d="M 0 504L 0 295.5L 536 346.5L 941 301L 1195 136L 1665 0L 1665 504L 0 504Z" transform="translate(0.5 180)" fill="white"/>
</g>
<g id="path22">
<path d="M 2.39258e-05 1058.67L 1671.13 8.78906e-06L 462.968 1345.38L 2.39258e-05 1058.67Z" transform="translate(62.6396 602.052) scale(0.125 -0.125)" fill="#18557A"/>
</g>
<g id="path24">
<path d="M 1587.19 846.132L -1.95312e-05 1767.41L 1587.15 2.92969e-06L 1587.19 846.132" transform="translate(120.51 654.805) scale(0.125 -0.125)" fill="#4DC5DE"/>
</g>
<g id="path26">
<path d="M 1.02539e-05 784.05L 1.02539e-05 3.41797e-05L 1779.36 1101.19L 1.02539e-05 784.05Z" transform="translate(0 508.483) scale(0.125 -0.125)" fill="#61C9B2"/>
</g>
<g id="path28">
<path d="M 1576.91 666.73L 1576.91 3.90625e-05L 9.76562e-06 918.43L 1576.91 666.73" transform="translate(121.795 545.091) scale(0.125 -0.125)" fill="#1F4B7E"/>
</g>
<g id="path30">
<path d="M 1660.84 -2.44141e-05L 0.0510051 949.13L 1.02539e-05 269.36L 1660.84 -2.44141e-05Z" transform="translate(0 444.146) scale(0.125 -0.125)" fill="#4DC5DE"/>
</g>
<g id="path32">
<path d="M 1.95312e-05 443.27L 754.085 910.14L 2321.73 -2.44141e-05L 1.95312e-05 443.27Z" transform="translate(26.25 547.646) scale(0.125 -0.125)" fill="#16243A"/>
</g>
<g id="path34">
<path d="M 2730.18 969.12L 0.000214844 404.33L 2729.89 -9.76562e-06L 2730.18 969.12" transform="translate(491.478 551.379) scale(0.125 -0.125)" fill="#18557A"/>
</g>
<g id="path36">
<path d="M 1840.24 648.46L -3.90625e-05 272.67L 1840.9 -9.76562e-06L 1840.24 648.46" transform="translate(602.602 551.379) scale(0.125 -0.125)" fill="#16243A"/>
</g>
<g id="path38">
<path d="M -2.92969e-05 -1.95312e-05L 1364.49 120.93L 796.37 813.57L -2.92969e-05 -1.95312e-05" transform="translate(432.04 532.411) scale(0.125 -0.125)" fill="#4DC5DE"/>
</g>
<g id="path40">
<path d="M 363.5 397.719L 0.0399219 844.449L -0.000117187 9.52148e-06L 363.5 397.719" transform="translate(318.904 656.198) scale(0.125 -0.125)" fill="#61C9B2"/>
</g>
<g id="path42">
<path d="M 1323.69 780.318L -7.8125e-05 -2.92969e-06L 74.7602 965.298L 1323.69 780.318Z" transform="translate(667.253 648.919) scale(0.125 -0.125)" fill="#4DC5DE"/>
</g>
<g id="path44">
<path d="M 1350.4 665.408L 0.000117187 544.808L 2475.92 2.39258e-05L 1350.4 665.408Z" transform="translate(433.746 604.126) scale(0.125 -0.125)" fill="#223B6D"/>
</g>
<g id="path46">
<path d="M 570.8 -3.90625e-05L 1.95312e-05 337.46L 590.2 250.49L 570.8 -3.90625e-05Z" transform="translate(602.547 563.133) scale(0.125 -0.125)" fill="#61C9B2"/>
</g>
<g id="path48">
<path d="M 1249.87 461.76L 1250.82 782.42L 7.8125e-05 -5.85937e-05L 1249.87 461.76Z" transform="translate(676.397 528.041) scale(0.125 -0.125)" fill="#61C9B2"/>
</g>
<g id="path50">
<path d="M -7.8125e-05 665.35L 975.31 524.51L -7.8125e-05 3.90625e-05L -7.8125e-05 665.35" transform="translate(318.909 545.091) scale(0.125 -0.125)" fill="#16243A"/>
</g>
<g id="path52">
<path d="M -7.8125e-05 446.231L 1701.42 1361.24L 366.53 2.09961e-05L -7.8125e-05 446.231Z" transform="translate(318.909 600.87) scale(0.125 -0.125)" fill="#18557A"/>
</g>
<g id="path54">
<path d="M 1925.98 92.5001L 1925.98 1069.65L 7.8125e-05 5.85937e-05L 1925.98 92.5001Z" transform="translate(910.835 420.901) scale(0.125 -0.125)" fill="#18557A"/>
</g>
<g id="path56">
<path d="M 2198.48 1253.71L 0 990.72L 868.27 2.92969e-05L 2198.48 1253.71Z" transform="translate(832.763 554.093) scale(0.125 -0.125)" fill="#4DC5DE"/>
</g>
<g id="path58">
<path d="M 1.95312e-05 971.42L 1.95312e-05 -5.85937e-05L 566.27 326.52L 1.95312e-05 971.42Z" transform="translate(832.641 551.666) scale(0.125 -0.125)" fill="#1F4B7E"/>
</g>
<g id="path60">
<path d="M 1.95312e-05 -5.85937e-05L 566.27 326.52L 1.95312e-05 650.76L 1.95312e-05 -5.85937e-05Z" transform="translate(832.641 551.666) scale(0.125 -0.125)" fill="#16243A"/>
</g>
<g id="path62">
<path d="M 1985.27 812.1L 1985.27 1789.25L 3.90625e-05 -3.90625e-05L 1985.27 812.1Z" transform="translate(903.424 510.851) scale(0.125 -0.125)" fill="#16243A"/>
</g>
<g id="path64">
<path d="M 1985.27 1085.62L 3.90625e-05 273.52L 1181.16 -5.85937e-05L 1985.27 1085.62Z" transform="translate(903.424 545.041) scale(0.125 -0.125)" fill="#61C9B2"/>
</g>
<g id="path66">
<path d="M 516.71 935.09L -0.000390625 -9.76562e-06L 516.71 286.97L 516.71 935.09" transform="translate(1086.99 323.066) scale(0.125 -0.125)" fill="#4DC5DE"/>
</g>
<g id="path68">
<path d="M 0 786.58L 1482.1 -0.000107422L 1482.1 690.98L 0 786.58Z" transform="translate(1480.04 410.266) scale(0.125 -0.125)" fill="#223B6D"/>
</g>
<g id="path70">
<path d="M 950.6 358.73L 0 95.6L 1482.1 0.000117187L 950.6 358.73Z" transform="translate(1480.04 323.894) scale(0.125 -0.125)" fill="#61C9B2"/>
</g>
<g id="path72">
<path d="M 1011.2 505.87L 0.000390625 682.4L 1011.2 0.000117187L 1011.2 505.87Z" transform="translate(1538.91 323.894) scale(0.125 -0.125)" fill="#16243A"/>
</g>
<g id="path74">
<path d="M 0 -2.92969e-05L 1482.1 410.27L 470.9 586.8L 0 -2.92969e-05" transform="translate(1480.04 311.944) scale(0.125 -0.125)" fill="#4DC5DE"/>
</g>
<g id="path76">
<path d="M 1011.6 1514.01L 0.000390625 176.53L 1011.6 -9.76562e-06L 1011.6 1514.01Z" transform="translate(1538.91 260.66) scale(0.125 -0.125)" fill="#18557A"/>
</g>
<g id="path78">
<path d="M 639.6 1.95313e-05L 1223.3 771.67L -0.000195313 563.4L 639.6 1.95313e-05" transform="translate(1458.96 238.594) scale(0.125 -0.125)" fill="#1F4B7E"/>
</g>
<g id="path80">
<path d="M 0.000390625 417.28L 86.8998 -7.8125e-05L 1310.2 208.27L 0.000390625 417.28" transform="translate(1448.09 168.169) scale(0.125 -0.125)" fill="#223B6D"/>
</g>
<g id="path82">
<path d="M 1310.2 -5.85937e-05L 1738.1 565.81L 1738.1 831.22L 0.000390625 209.01L 1310.2 -5.85937e-05Z" transform="translate(1448.09 142.135) scale(0.125 -0.125)" fill="#16243A"/>
</g>
<g id="path84">
<path d="M 0 865.46L 146.4 0.000195313L 1884.5 622.21L 0 865.46Z" transform="translate(1429.79 116.009) scale(0.125 -0.125)" fill="#4DC5DE"/>
</g>
<g id="path86">
<path d="M 0 5.37109e-05L 1644.8 658.5L 939.8 1032.86L 0 5.37109e-05" transform="translate(1363.48 445.824) scale(0.125 -0.125)" fill="#18557A"/>
</g>
<g id="path88">
<path d="M 0 810.37L 308.6 9.76562e-06L 1231.5 1015.96L 0 810.37Z" transform="translate(1326.11 438.939) scale(0.125 -0.125)" fill="#16243A"/>
</g>
<g id="path90">
<path d="M 422.4 403.46L -0.000390625 -1.95312e-05L 1539.3 296.04L 422.4 403.46Z" transform="translate(1346.49 275.599) scale(0.125 -0.125)" fill="#1F4B7E"/>
</g>
<g id="path92">
<path d="M 0 -0.000117187L 1231.5 205.59L 1702.4 792.39L 0 -0.000117187" transform="translate(1326.11 337.643) scale(0.125 -0.125)" fill="#223B6D"/>
</g>
<g id="path94">
<path d="M 163.1 496.35L 0 -0.000117187L 1702.4 792.39L 163.1 496.35Z" transform="translate(1326.11 337.643) scale(0.125 -0.125)" fill="#16243A"/>
</g>
<g id="path96">
<path d="M 0 107.42L 1116.9 1.95312e-05L 477.3 563.4L 0 107.42Z" transform="translate(1399.29 238.594) scale(0.125 -0.125)" fill="#16243A"/>
</g>
<g id="path98">
<path d="M 899.7 859.44L 812.8 1276.72L -0.000390625 -1.95312e-05L 899.7 859.44" transform="translate(1346.49 275.599) scale(0.125 -0.125)" fill="#18557A"/>
</g>
<g id="path100">
<path d="M 493.8 -1.95312e-05L 1306.6 1276.72L -0.000195313 651.61L 493.8 -1.95312e-05" transform="translate(1284.77 275.599) scale(0.125 -0.125)" fill="#223B6D"/>
</g>
<g id="path102">
<path d="M -0.000195313 8.78906e-05L 1306.6 625.11L 397.9 445.51L -0.000195313 8.78906e-05" transform="translate(1284.77 194.148) scale(0.125 -0.125)" fill="#61C9B2"/>
</g>
<g id="path104">
<path d="M 987.5 0.000195313L 841.1 865.46L 0.000390625 289.6L 987.5 0.000195313Z" transform="translate(1324.66 116.009) scale(0.125 -0.125)" fill="#223B6D"/>
</g>
<g id="path106">
<path d="M 841.1 1045.06L 0.000390625 469.2L 78.8002 9.76563e-05L 841.1 1045.06" transform="translate(1324.66 138.459) scale(0.125 -0.125)" fill="#61C9B2"/>
</g>
<g id="path108">
<path d="M 759.04 1331.03L -0.000234375 5.85937e-05L 1252.84 679.42L 759.04 1331.03" transform="translate(1189.89 360.526) scale(0.125 -0.125)" fill="#16243A"/>
</g>
<g id="path110">
<path d="M 989.69 1101.09L -0.000429687 -3.90625e-05L 1065.49 744.38L 989.69 1101.09Z" transform="translate(1151.58 287.195) scale(0.125 -0.125)" fill="#223B6D"/>
</g>
<g id="path112">
<path d="M 0 356.71L 75.7998 8.78906e-05L 1382.4 625.11L 0 356.71Z" transform="translate(1275.29 194.148) scale(0.125 -0.125)" fill="#16243A"/>
</g>
<g id="path114">
<path d="M 1384.59 666.63L -0.000429687 1211.77L 406.29 -7.8125e-05L 1384.59 666.63Z" transform="translate(1151.58 163.138) scale(0.125 -0.125)" fill="#223B6D"/>
</g>
<g id="path116">
<path d="M -0.000429687 5.85937e-05L 819.19 1036.38L -0.000429687 977.15L -0.000429687 5.85937e-05Z" transform="translate(1151.58 409.339) scale(0.125 -0.125)" fill="#1F4B7E"/>
</g>
<g id="path118">
<path d="M -0.000429687 -3.90625e-05L 406.29 992.46L -0.000429687 648.12L -0.000429687 -3.90625e-05Z" transform="translate(1151.58 287.195) scale(0.125 -0.125)" fill="#61C9B2"/>
</g>
<g id="path120">
<path d="M 406.29 -7.8125e-05L -0.000429687 1211.77L -0.000429687 170.1L 406.29 -7.8125e-05Z" transform="translate(1151.58 163.138) scale(0.125 -0.125)" fill="#16243A"/>
</g>
<g id="path122">
<path d="M -0.000429687 7.8125e-05L -0.000429687 514.44L 406.29 344.34L -0.000429687 7.8125e-05Z" transform="translate(1151.58 206.18) scale(0.125 -0.125)" fill="#18557A"/>
</g>
<g id="path124">
<path d="M 78.8002 9.76563e-05L 987.5 179.6L 0.000390625 469.2L 78.8002 9.76563e-05" transform="translate(1324.66 138.459) scale(0.125 -0.125)" fill="#18557A"/>
</g>
<g id="path126">
<path d="M 1737.5 357.41L 1737.7 782.85L 0.000390625 0.000195313L 1737.5 357.41" transform="translate(1448.09 116.009) scale(0.125 -0.125)" fill="#1F4B7E"/>
</g>
<g id="path128">
<path d="M 279.2 1441.43L -0.000195313 1171.61L 278.8 -0.00015625L 279.2 1441.43" transform="translate(1630.46 180.179) scale(0.125 -0.125)" fill="#61C9B2"/>
</g>
<g id="path130">
<path d="M -0.000429687 -3.90625e-05L 1559.29 92.77L 1065.49 744.38L -0.000429687 -3.90625e-05Z" transform="translate(1151.58 287.195) scale(0.125 -0.125)" fill="#18557A"/>
</g>
<g id="path132">
<path d="M 1057.1 197.43L 978.3 666.63L -0.000390625 -7.8125e-05L 1057.1 197.43" transform="translate(1202.37 163.138) scale(0.125 -0.125)" fill="#4DC5DE"/>
</g>
<g id="path134">
<path d="M -3.90625e-05 -8.78906e-05L 1380.44 592.14L 325.55 415.3L -3.90625e-05 -8.78906e-05Z" transform="translate(1151.23 415.92) scale(0.125 -0.125)" fill="#4DC5DE"/>
</g>
<g id="path136">
<path d="M -0.000234375 5.85937e-05L 1089.74 183.07L 1252.84 679.42L -0.000234375 5.85937e-05Z" transform="translate(1189.89 360.526) scale(0.125 -0.125)" fill="#61C9B2"/>
</g>
<g id="path138">
<path d="M 406.29 992.46L -0.000429687 -3.90625e-05L 989.69 1101.09L 406.29 992.46Z" transform="translate(1151.58 287.195) scale(0.125 -0.125)" fill="#1F4B7E"/>
</g>
<g id="path140">
<path d="M 2915.71 -2.68555e-05L 2531.73 470.69L 964.082 1380.83L 1.02539e-05 1537.66L 1.02539e-05 1568.05L 974.362 1409.56L 976.752 1408.17L 2551.52 493.89L 2917.8 44.899L 3456.32 592.57L 3461.81 593.06L 4821.24 714.46L 4822.99 714.2L 5411.18 627.53L 6661.6 1089.37L 7227.39 765.05L 8408.55 491.53L 9190.99 1549.48L 9518.94 1967.45L 9524.67 1968.42L 10609.6 2150.3L 10917.5 1340.35L 11841.2 2355.59L 13322.4 1567.97L 13322.2 1535.19L 11847.7 2318.13L 10906.8 1284.03L 10590.3 2116.64L 9535.36 1939.8L 9214.85 1531.31L 8420.96 457.85L 7216.32 736.83L 7214.4 737.92L 6658.85 1056.36L 5414.39 596.73L 4820.37 684.26L 3469.97 563.66L 2915.71 -2.68555e-05" transform="translate(0 606.483) scale(0.125 -0.125)" fill="#C28D1B"/>
</g>
</g>
</g>
</g>
</g>
</g>
</g>
</svg>

