<svg width="1316" height="284" viewBox="5 0 1306 280" version="1.1" xmlns="http://www.w3.org/2000/svg" xmlns:xlink="http://www.w3.org/1999/xlink">
<title>Group 3</title>
<desc>Created using Figma</desc>
<g id="Canvas" transform="translate(-5440 305)">
<g id="Group 3">
<g id="Vector 37">
<use xlink:href="#path0_fill" transform="translate(5440 -156)" fill="#FFFFFF"/>
</g>
<g id="Group" opacity="0.75">
<g id="Vector 35">
<use xlink:href="#path1_fill" transform="translate(6275 -237)" fill="#011639"/>
</g>
<g id="Vector 34">
<use xlink:href="#path2_fill" transform="translate(6319.5 -165.5)" fill="#1C3E6B"/>
</g>
<g id="Vector 33">
<use xlink:href="#path3_fill" transform="translate(6284 -165.5)" fill="#245D86"/>
</g>
<g id="Vector 32">
<use xlink:href="#path4_fill" transform="translate(6458 -165)" fill="#011639"/>
</g>
<g id="Vector 31">
<use xlink:href="#path5_fill" transform="translate(6487 -119)" fill="#245D86"/>
</g>
<g id="Vector 30">
<use xlink:href="#path6_fill" transform="translate(6528 -119)" fill="#94D8F2"/>
</g>
<g id="Vector 24">
<use xlink:href="#path7_fill" transform="translate(6458 -171)" fill="#1F4B8C"/>
</g>
<g id="Vector 23">
<use xlink:href="#path8_fill" transform="translate(6458 -252)" fill="#1C3E6B"/>
</g>
<g id="Vector 22">
<use xlink:href="#path9_fill" transform="translate(6005 -271)" fill="#011639"/>
</g>
<g id="Vector 20">
<use xlink:href="#path10_fill" transform="translate(6275 -196.5)" fill="#1E4B8C"/>
</g>
<g id="Vector 19">
<use xlink:href="#path11_fill" transform="translate(6038 -165)" fill="#204A8B"/>
</g>
<g id="Vector 17">
<use xlink:href="#path12_fill" transform="translate(5954 -205)" fill="#011639"/>
</g>
<g id="Vector 18">
<use xlink:href="#path13_fill" transform="translate(6020 -218)" fill="#94D8F2"/>
</g>
<g id="Vector 16">
<use xlink:href="#path14_fill" transform="translate(5934 -252)" fill="#1C3E6B"/>
</g>
<g id="Vector 15">
<use xlink:href="#path15_fill" transform="translate(5947 -218)" fill="#245C86"/>
</g>
<g id="Vector 14">
<use xlink:href="#path16_fill" transform="translate(5756.5 -305)" fill="#94D8F2"/>
</g>
<g id="Vector 12">
<use xlink:href="#path17_fill" transform="translate(5785.5 -252)" fill="#011639"/>
</g>
<g id="Vector 13">
<use xlink:href="#path18_fill" transform="translate(5785.5 -279)" fill="#94D8F2"/>
</g>
<g id="Vector 11">
<use xlink:href="#path19_fill" transform="translate(5785.5 -202)" fill="#4B8EB4"/>
</g>
<g id="Vector 10">
<use xlink:href="#path20_fill" transform="translate(5689 -181)" fill="#1C3E6B"/>
</g>
<g id="Vector 9">
<use xlink:href="#path21_fill" transform="translate(5714.5 -202)" fill="#01173A"/>
</g>
<g id="Vector 8">
<use xlink:href="#path22_fill" transform="translate(5538 -279)" fill="#1C3E6B"/>
</g>
<g id="Vector 7">
<use xlink:href="#path23_fill" transform="translate(5538 -202)" fill="#245C87"/>
</g>
<g id="Vector 2">
<use xlink:href="#path24_fill" transform="translate(5440 -218.017)" fill="#4B8EB4"/>
</g>
<g id="Vector 3">
<use xlink:href="#path25_fill" transform="translate(5538 -178.5)" fill="#94D8F2"/>
</g>
<g id="Vector 4">
<use xlink:href="#path26_fill" transform="translate(5440 -160)" fill="#1F498B"/>
</g>
<g id="Vector 5">
<use xlink:href="#path27_fill" transform="translate(5440 -142)" fill="#01173A"/>
</g>
<g id="Vector 6">
<use xlink:href="#path28_fill" transform="translate(5440 -142)" fill="#245D86"/>
</g>
<g id="Vector 25">
<use xlink:href="#path29_fill" transform="translate(6615 -171)" fill="#94D8F2"/>
</g>
<g id="Vector 27">
<use xlink:href="#path30_fill" transform="translate(6615 -206)" fill="#1F4B8C"/>
</g>
<g id="Vector 21">
<use xlink:href="#path31_fill" transform="translate(6020 -273)" fill="#1C3E6B"/>
</g>
<g id="Vector 26">
<use xlink:href="#path32_fill" transform="translate(6728 -185)" fill="#01163A"/>
</g>
<g id="Vector 28">
<use xlink:href="#path33_fill" transform="translate(6686 -144)" fill="#1C3E6B"/>
</g>
<g id="Vector 29">
<use xlink:href="#path34_fill" transform="translate(6616 -119)" fill="#1F4B8C"/>
</g>
<g id="Vector 36">
<use xlink:href="#path35_fill" transform="translate(6284 -114)" fill="#011639"/>
</g>
</g>
</g>
</g>
<defs>
<path id="path0_fill" d="M 112.5 43L 0 80L 0 134.5L 1316 134.5L 1316 104.5L 1176 113L 1088 65L 1047 42L 1027 117L 844 47L 598.5 0L 514 7L 249 13L 209 68L 112.5 43Z"/>
<path id="path1_fill" d="M 44.5 71.5L 0 40.5L 202 0L 195.5 79L 44.5 71.5Z"/>
<path id="path2_fill" d="M 167.5 51.5L 0 0L 138.5 0.5L 167.5 51.5Z"/>
<path id="path3_fill" d="M 203 51.5L 35.5 0L 0 56.5L 203 51.5Z"/>
<path id="path4_fill" d="M 29 51L 228 46L 0 0L 29 51Z"/>
<path id="path5_fill" d="M 41 28L 199 0L 0 5L 41 28Z"/>
<path id="path6_fill" d="M 88 76L 158 0L 0 28L 88 76Z"/>
<path id="path7_fill" d="M 228 52L 157 0L 0 6L 228 52Z"/>
<path id="path8_fill" d="M 22 0L 0 87L 157 81L 22 0Z"/>
<path id="path9_fill" d="M 88 26L 15 53L 0 50L 37 0L 88 26Z"/>
<path id="path10_fill" d="M 9 87.5L 0 0L 44.5 31L 9 87.5Z"/>
<path id="path11_fill" d="M 110.5 0L 246 56L 0 9L 110.5 0Z"/>
<path id="path12_fill" d="M 98 0L 0 56L 195 40L 98 0Z"/>
<path id="path13_fill" d="M 255 21.5L 264 109L 0 0L 255 21.5Z"/>
<path id="path14_fill" d="M 86 34L 13 69L 0 0L 86 34Z"/>
<path id="path15_fill" d="M 105 13L 7 69L 0 35L 73 0L 105 13Z"/>
<path id="path16_fill" d="M 81.5 26L 14.5 52.5L 0 0L 81.5 26Z"/>
<path id="path17_fill" d="M 161.5 69L 0 50L 148.5 0L 161.5 69Z"/>
<path id="path18_fill" d="M 52.5 0L 0 77L 148.5 27L 52.5 0Z"/>
<path id="path19_fill" d="M 161.5 19L 168.5 53L 68 24.5L 0 0L 161.5 19Z"/>
<path id="path20_fill" d="M 162 0L 25.5 2.5L 0 38L 265 32L 162 0Z"/>
<path id="path21_fill" d="M 136.5 21L 71 0L 0 23.5L 136.5 21Z"/>
<path id="path22_fill" d="M 300 0L 0 119L 247.5 77L 300 0Z"/>
<path id="path23_fill" d="M 247.5 0L 0 42L 176.5 23.5L 247.5 0Z"/>
<path id="path24_fill" d="M 0 69.3159L 0 0L 98 58.0169L 0 69.3159Z"/>
<path id="path25_fill" d="M 176.5 0L 111.017 90.4936L 0 18.5L 176.5 0Z"/>
<path id="path26_fill" d="M 98 0L 0 11L 0 18L 144.5 30L 98 0Z"/>
<path id="path27_fill" d="M 0 0L 209 54L 144.5 12L 0 0Z"/>
<path id="path28_fill" d="M 0 66L 0 0L 112.5 29L 0 66Z"/>
<path id="path29_fill" d="M 71 52L 0 0L 141 6L 141 27L 71 52Z"/>
<path id="path30_fill" d="M 141 46L 0 35L 141 0L 141 46Z"/>
<path id="path31_fill" d="M 139 0L 0 55L 255 76.5L 139 0Z"/>
<path id="path32_fill" d="M 28 0L 28 23L 0 21.5L 28 0Z"/>
<path id="path33_fill" d="M 70 0L 0 25L 70 80L 70 0Z"/>
<path id="path34_fill" d="M 140 55L 70 0L 0 76L 140 67.5L 140 55Z"/>
<path id="path35_fill" d="M 183 75L 203 0L 0 5L 183 75Z"/>
</defs>
</svg>
